<svg id="e3WuQNXGjPs1" xmlns="http://www.w3.org/2000/svg" xmlns:xlink="http://www.w3.org/1999/xlink" viewBox="0 0 400 500" shape-rendering="geometricPrecision" text-rendering="geometricPrecision">
<style><![CDATA[
#e3WuQNXGjPs3_ts {animation: e3WuQNXGjPs3_ts__ts 1500ms linear infinite normal forwards}@keyframes e3WuQNXGjPs3_ts__ts { 0% {transform: translate(216.949997px,315.850479px) scale(0,0)} 46.666667% {transform: translate(216.949997px,315.850479px) scale(0,0);animation-timing-function: cubic-bezier(0.68,-0.55,0.265,1.55)} 86.666667% {transform: translate(216.949997px,315.850479px) scale(1,1)} 100% {transform: translate(216.949997px,315.850479px) scale(1,1)}} #e3WuQNXGjPs5_ts {animation: e3WuQNXGjPs5_ts__ts 1500ms linear infinite normal forwards}@keyframes e3WuQNXGjPs5_ts__ts { 0% {transform: translate(148.150459px,315.849991px) scale(0,0)} 33.333333% {transform: translate(148.150459px,315.849991px) scale(0,0);animation-timing-function: cubic-bezier(0.68,-0.55,0.265,1.55)} 66.666667% {transform: translate(148.150459px,315.849991px) scale(1,1)} 100% {transform: translate(148.150459px,315.849991px) scale(1,1)}} #e3WuQNXGjPs8_tr {animation: e3WuQNXGjPs8_tr__tr 1500ms linear infinite normal forwards}@keyframes e3WuQNXGjPs8_tr__tr { 0% {transform: translate(200.829185px,227.337502px) rotate(-720deg);animation-timing-function: cubic-bezier(0.625,0.005,0.405,0.995)} 40% {transform: translate(200.829185px,227.337502px) rotate(0deg)} 100% {transform: translate(200.829185px,227.337502px) rotate(0deg)}} #e3WuQNXGjPs8_ts {animation: e3WuQNXGjPs8_ts__ts 1500ms linear infinite normal forwards}@keyframes e3WuQNXGjPs8_ts__ts { 0% {transform: scale(0,0);animation-timing-function: cubic-bezier(0.625,0.005,0.405,0.995)} 40% {transform: scale(1.5,1.5);animation-timing-function: cubic-bezier(0.625,0.005,0.405,0.995)} 60% {transform: scale(1,1)} 100% {transform: scale(1,1)}} #e3WuQNXGjPs10_to {animation: e3WuQNXGjPs10_to__to 1500ms linear infinite normal forwards}@keyframes e3WuQNXGjPs10_to__to { 0% {transform: translate(200.829155px,250.149994px)} 86.666667% {transform: translate(200.829155px,250.149994px);animation-timing-function: cubic-bezier(0.625,0.005,0.405,0.995)} 100% {transform: translate(90.829155px,250.149994px)}} #e3WuQNXGjPs18_to {animation: e3WuQNXGjPs18_to__to 1500ms linear infinite normal forwards}@keyframes e3WuQNXGjPs18_to__to { 0% {transform: translate(760.166666px,661.305756px)} 60% {transform: translate(760.166666px,661.305756px);animation-timing-function: cubic-bezier(0.625,0.005,0.405,0.995)} 80% {transform: translate(693.5px,661.305756px)} 100% {transform: translate(693.5px,661.305756px)}} #e3WuQNXGjPs18 {animation: e3WuQNXGjPs18_c_o 1500ms linear infinite normal forwards}@keyframes e3WuQNXGjPs18_c_o { 0% {opacity: 0} 60% {opacity: 0;animation-timing-function: cubic-bezier(0.625,0.005,0.405,0.995)} 80% {opacity: 1} 100% {opacity: 1}} #e3WuQNXGjPs24_to {animation: e3WuQNXGjPs24_to__to 1500ms linear infinite normal forwards}@keyframes e3WuQNXGjPs24_to__to { 0% {transform: translate(325.433325px,661.305756px)} 60% {transform: translate(325.433325px,661.305756px);animation-timing-function: cubic-bezier(0.625,0.005,0.405,0.995)} 80% {transform: translate(392.099991px,661.305756px)} 100% {transform: translate(392.099991px,661.305756px)}} #e3WuQNXGjPs24 {animation: e3WuQNXGjPs24_c_o 1500ms linear infinite normal forwards}@keyframes e3WuQNXGjPs24_c_o { 0% {opacity: 0} 60% {opacity: 0;animation-timing-function: cubic-bezier(0.625,0.005,0.405,0.995)} 80% {opacity: 1} 100% {opacity: 1}}
]]></style>
<defs><filter id="e3WuQNXGjPs2-filter" x="-150%" width="400%" y="-150%" height="400%"><feGaussianBlur id="e3WuQNXGjPs2-filter-blur-0" stdDeviation="0,0" result="result"/></filter><filter id="e3WuQNXGjPs17-filter" x="-150%" width="400%" y="-150%" height="400%"><feGaussianBlur id="e3WuQNXGjPs17-filter-blur-0" stdDeviation="0,0" result="result"/></filter></defs><g filter="url(#e3WuQNXGjPs2-filter)"><g id="e3WuQNXGjPs3_ts" transform="translate(216.949997,315.850479) scale(0,0)"><g transform="translate(-216.949997,-315.850479)"><path d="M198.4,315.6c0-10.5,7.8-18.3,18.3-18.3s18.8,8.2,18.8,18.6c0,9.8-8.7,18.4-18.7,18.5-10.5.1-18.4-8-18.4-18.8Zm8.1,0c0,6.1,4.4,10.6,10.1,10.6c5.8,0,10.7-5,10.6-10.9-.1-5.6-4.9-10-10.9-9.9-5.8.2-9.8,4.3-9.8,10.2Z" fill="#6c76f3"/></g></g><g id="e3WuQNXGjPs5_ts" transform="translate(148.150459,315.849991) scale(0,0)"><g transform="translate(-148.150459,-315.849991)"><path d="M148.2,297.3c10.7,0,18.6,7.9,18.5,18.7-.1,10.5-8,18.4-18.3,18.4-10.2,0-18.8-8.7-18.8-18.8.1-10.2,8.3-18.3,18.6-18.3Zm.4,8.2c-6,0-10.6,4.4-10.8,10.1-.1,5.9,4.7,10.8,10.7,10.7c5.5-.1,10.2-5,10.1-10.8c0-5.9-4.2-10.1-10-10Z" fill="#6c76f3"/></g></g><g><g id="e3WuQNXGjPs8_tr" transform="translate(200.829185,227.337502) rotate(-720)"><g id="e3WuQNXGjPs8_ts" transform="scale(0,0)"><path d="M241.1,245.4c-4.5-1.2-78.7-1.3-83.7-.1c1.4,1.5,2.6,2.8,3.8,4.1c2.9,3,5.9,5.9,8.7,8.9c1.5,1.6,1.7,3.6.1,5.4s-3.7,2-5.7,0c-6.8-6.6-13.5-13.3-20.1-20.1-2.3-2.4-2.3-4.6.1-7c6.4-6.6,12.9-13,19.4-19.4c2.3-2.2,4.9-2.2,6.6-.3c1.6,1.7,1.4,3.7-.9,6.2-2.7,2.9-5.6,5.7-8.4,8.5-1.1,1.2-2.2,2.4-3.8,4.2c2,.3,3.2.6,4.5.6c25.5,0,51,0,76.4,0c5.6,0,5.6-.1,6.8-5.7c3.5-16.1,6.9-32.2,10.3-48.3.2-.8.3-1.6.5-2.4c2.6-11.2,6.3-14.1,17.6-14.1c5.5,0,11,0,16.5.1c2,0,4.1.3,4.8,2.8.8,2.8-.6,5-3.7,5.1-4.2.2-8.3.1-12.5.2-2.2,0-4.3-.1-6.5,0-5,.2-6.5,1.3-7.6,6.1-2.6,11.7-5.1,23.4-7.6,35.1-4.1,19.4-8.3,38.7-12.4,58.1-1.4,6.6-4.9,11.7-11.4,14.1-2.1.8-4.5,1.2-6.8,1.2-29,.1-58,.1-86.9,0-9.6,0-16.1-5.5-18.2-15.3-3.5-15.9-6.8-31.9-10.2-47.9-1.2-5.7-2.5-11.4-3.6-17.1-1.9-9.8,3.8-16.8,13.8-16.8c29.8-.1,59.6,0,89.4,0c1.9,0,3.8,0,5.8,0c.1-.4.2-.7.4-1.1-3-3-6-6.1-8.9-9.1-1.4-1.4-2.9-2.8-4.1-4.4s-1.2-3.4.3-5c1.5-1.5,3.2-1.6,5-.5.8.5,1.6,1.2,2.3,1.9c5.9,5.9,11.8,11.7,17.7,17.7c3.8,3.9,3.8,5.2-.1,9.1-5.8,5.9-11.8,11.8-17.7,17.7-.7.7-1.4,1.4-2.3,2-1.8,1.2-3.5.8-4.9-.7-1.3-1.3-1.6-3-.5-4.6.8-1.2,1.9-2.3,3-3.4c3.4-3.4,6.8-6.8,11.1-11.1-2.8-.2-4.5-.4-6.2-.4-23,0-46,0-68.9,0-6.5,0-13-.1-19.5,0-6.6.1-8.5,2.2-7.2,8.6c4.4,21,8.9,42,13.4,63c1.4,6.5,4.8,9.1,11.7,9.2c21.8,0,43.6,0,65.5,0c6.2,0,12.3.1,18.5,0c6.9-.1,10.1-2.6,11.6-9.3c1.6-7.3,3.1-14.7,4.6-22-.1-1.2,0-2.4.1-3.8Z" transform="translate(-200.829185,-227.337502)" fill="#efaa00" stroke-dashoffset="1305.524808" stroke-dasharray="130"/></g></g></g></g><g transform="matrix(.3 0 0 0.3-3.3 174.608274)" filter="url(#e3WuQNXGjPs17-filter)"><g id="e3WuQNXGjPs18_to" transform="translate(760.166666,661.305756)"><g id="e3WuQNXGjPs18" transform="translate(-693.5,-661.305756)" opacity="0"><path d="M560.4,624.5c0,3.5-2.9,7-8.2,7h-25.7l.1,66.5c0,5-4.6,7.3-8.2,7.3-3.9,0-8-2.3-8-7.3v-66.5h-25.4c-5.4,0-7.7-3.6-7.7-7c0-3.6,2.3-7.2,7.7-7.2h67.3c5.2,0,8.1,3.6,8.1,7.2Z" fill="#efaa00"/><path d="M629,702.7l-24.7-26.4h-20.9v21.8c0,4.7-4.1,7.2-8,7.2-4.1,0-8-2.5-8-7v-73.8c0-4.3,3.3-7.2,8-7.2h30.8c24.7,0,37.3,13.3,37.3,29.8c0,13-6.9,23.2-21,27.2l16.6,17.4c8.4,9-3.2,18.5-10.1,11Zm-22.7-39.8c14.8,0,21.3-7.2,21-15.6-.1-9.1-8-16-21-16h-22.9v31.6h22.9Z" fill="#efaa00"/><path d="M909.7,661.4c0,26.4-16.7,43.9-41.9,43.9h-28.5c-5,0-9.1-3.7-9.1-8.2v-71.8c0-4.4,4.1-8,9.1-8h28.5c25.2,0,41.9,17.7,41.9,44.1Zm-15.9,0c0-18.2-10.5-30.5-26-30.5h-21.8v60.8h21.8c15.5,0,26-12,26-30.3Z" fill="#efaa00"/><path d="M726.9,698.7c0,3.3-2.5,6.6-7.6,6.6h-54.9c-5.5,0-9.1-3.7-9.1-8.3v-71.6c0-4.4,3.6-8.2,9.1-8.2h54.9c5,0,7.3,3.2,7.3,6.6c0,3.3-2.6,6.9-7.3,6.9h-48.2v24.2h45.7c4.7,0,7.2,3.5,7.2,6.9c0,3.3-2.3,6.6-7.2,6.6h-45.7v22.9h48.2c4.9.2,7.6,4,7.6,7.4Z" fill="#efaa00"/><path d="M807.9,617.3c4.1,0,8,2.1,8,6.8v73c0,5.5-4.7,8.3-9.3,8.3-3.2,0-6.5-1.7-8.3-4L756,647l.6,7.7v43.3c0,5.1-4.1,7.3-8.2,7.3-4.3,0-8.3-2.2-8.3-7.3v-72.3c0-5.5,4-8.4,8.4-8.4c3.5,0,5.8,1.4,8,4.1l43.4,56.4-.6-9.3v-44.5c.2-4.3,4.5-6.7,8.6-6.7Z" fill="#efaa00"/></g></g><g id="e3WuQNXGjPs24_to" transform="translate(325.433325,661.305756)"><g id="e3WuQNXGjPs24" transform="translate(-392.099991,-661.305756)" opacity="0"><g><path d="M373.9,702.7l-24.7-26.4h-20.9v21.8c0,4.7-4.1,7.2-8,7.2-4.1,0-8-2.5-8-7v-73.8c0-4.3,3.3-7.2,8-7.2h30.8c24.7,0,37.3,13.3,37.3,29.8c0,13-6.9,23.2-21,27.2L384,691.7c8.4,9-3.2,18.5-10.1,11Zm-22.7-39.8c14.8,0,21.3-7.2,21-15.6-.1-9.1-8-16-21-16h-22.9v31.6h22.9Z" fill="#6c76f3"/><path d="M471.9,698.7c0,3.3-2.5,6.6-7.6,6.6h-54.9c-5.5,0-9.1-3.7-9.1-8.3v-71.6c0-4.4,3.6-8.2,9.1-8.2h54.9c5,0,7.3,3.2,7.3,6.6c0,3.3-2.6,6.9-7.3,6.9h-48.3v24.2h45.7c4.7,0,7.2,3.5,7.2,6.9c0,3.3-2.3,6.6-7.2,6.6h-45.7v22.9h48.2c4.9.2,7.7,4,7.7,7.4Z" fill="#6c76f3"/></g></g></g></g></svg>
