<?xml version="1.0" standalone="no"?>
<!DOCTYPE svg PUBLIC "-//W3C//DTD SVG 20010904//EN"
 "http://www.w3.org/TR/2001/REC-SVG-20010904/DTD/svg10.dtd">
<svg version="1.0" xmlns="http://www.w3.org/2000/svg"
 width="512.000000pt" height="512.000000pt" viewBox="0 0 512.000000 512.000000"
 preserveAspectRatio="xMidYMid meet">

<g transform="translate(0.000000,512.000000) scale(0.100000,-0.100000)"
fill="#000000" stroke="none">
<path d="M995 4118 c-11 -6 -33 -24 -50 -41 l-30 -30 -3 -599 -3 -599 -37 -17
c-20 -9 -39 -20 -42 -23 -3 -3 -30 -22 -60 -41 -71 -45 -147 -114 -166 -149
-36 -71 5 -172 85 -205 65 -27 129 -12 205 49 300 242 767 289 1117 111 79
-41 162 -93 167 -106 2 -4 7 -8 12 -8 9 0 114 -102 172 -167 133 -149 222
-367 238 -586 11 -141 32 -193 90 -226 45 -25 109 -27 153 -5 67 35 80 65 81
189 l1 100 213 3 c139 1 212 -1 212 -8 0 -5 -4 -10 -9 -10 -16 0 -122 -142
-142 -190 -11 -25 -24 -53 -29 -63 -18 -31 -32 -170 -25 -252 12 -157 104
-329 220 -412 33 -24 65 -47 71 -52 6 -5 47 -24 90 -42 75 -30 85 -32 214 -32
115 0 143 3 191 21 246 96 393 290 415 547 13 147 -57 325 -175 446 l-56 57
43 23 c45 24 112 95 112 121 0 7 4 18 9 24 5 5 18 36 29 69 12 33 32 92 47
130 14 39 33 90 41 115 9 25 20 49 25 54 5 6 9 17 9 25 0 14 14 53 61 173 21
52 25 128 8 160 -24 45 -52 48 -494 48 l-415 0 0 323 c0 383 8 469 48 541 28
48 38 56 100 72 8 2 12 28 12 85 l0 82 -77 -6 c-181 -13 -318 -111 -379 -272
-16 -45 -19 -90 -24 -435 l-5 -385 -230 -3 -230 -2 -23 87 c-13 49 -32 120
-42 158 -18 68 -33 128 -52 210 -6 22 -18 72 -28 110 -10 39 -22 88 -28 110
-19 80 -34 141 -52 210 -10 39 -28 108 -40 155 -11 47 -30 121 -41 165 -26
104 -56 163 -94 186 -28 18 -66 19 -710 19 -479 -1 -686 -4 -700 -12z m1223
-395 c13 -49 31 -117 41 -153 22 -79 51 -192 61 -240 5 -19 16 -62 25 -95 51
-184 53 -196 42 -201 -7 -2 -268 -3 -582 -2 l-570 3 -3 388 -2 387 483 0 482
0 23 -87z m1649 -2105 c154 -57 241 -213 209 -378 -16 -83 -36 -121 -97 -182
-170 -169 -449 -115 -550 108 -67 148 -14 328 125 422 23 16 56 32 72 36 16 4
45 11 64 15 45 11 112 3 177 -21z"/>
<path d="M1435 2564 c-115 -23 -126 -27 -141 -49 -18 -28 -73 -50 -88 -35 -16
16 -41 12 -100 -16 -70 -33 -109 -68 -102 -92 8 -24 -51 -64 -82 -55 -18 4
-32 -5 -69 -43 -65 -69 -84 -103 -72 -126 13 -24 -22 -75 -54 -80 -23 -3 -61
-68 -88 -150 -10 -32 -10 -40 4 -55 21 -25 11 -73 -22 -100 -24 -19 -26 -29
-29 -106 -4 -76 -2 -87 17 -106 31 -31 38 -77 16 -101 -17 -19 -17 -23 6 -102
22 -80 46 -118 72 -118 17 0 50 -67 37 -75 -20 -12 -9 -42 40 -107 48 -63 79
-86 98 -74 14 8 71 -44 66 -59 -10 -24 14 -51 81 -95 56 -36 70 -41 100 -36
36 7 101 -17 91 -33 -10 -16 29 -39 90 -55 78 -20 123 -21 130 -1 9 24 81 20
94 -5 9 -16 21 -20 68 -20 78 1 133 15 152 39 19 26 82 49 88 33 7 -21 50 -13
115 19 74 37 97 56 97 80 0 28 47 59 79 53 24 -5 36 3 89 57 52 52 62 68 60
93 -2 41 27 84 60 88 22 2 32 15 58 68 40 80 50 118 35 133 -23 23 -5 97 23
97 22 0 28 28 33 156 l6 121 -27 20 c-28 23 -36 79 -14 101 9 9 9 24 -2 64 -7
29 -16 60 -20 68 -4 8 -14 28 -21 43 -8 17 -23 30 -39 33 -31 7 -54 51 -44 87
4 19 -1 36 -23 64 -70 94 -105 122 -127 104 -16 -14 -63 34 -68 69 -5 40 -159
133 -181 111 -6 -6 -19 -11 -29 -11 -26 0 -68 22 -68 35 0 19 -33 42 -70 49
-95 18 -136 18 -149 2 -19 -23 -82 -21 -104 4 -16 19 -30 22 -72 14z m259
-368 c159 -44 310 -165 375 -301 18 -38 37 -77 41 -86 4 -8 14 -50 20 -93 50
-304 -123 -577 -425 -672 -89 -28 -257 -26 -346 4 -183 63 -316 193 -381 376
-26 71 -29 95 -29 192 0 122 16 189 74 298 51 95 176 210 275 252 122 51 275
63 396 30z"/>
<path d="M1444 1884 c-54 -19 -118 -75 -152 -132 -24 -41 -27 -57 -27 -132 0
-70 4 -93 24 -130 110 -207 399 -206 505 3 44 89 36 210 -19 283 -42 55 -66
75 -123 100 -61 28 -143 31 -208 8z"/>
</g>
</svg>
