<?xml version="1.0" standalone="no"?>
<!DOCTYPE svg PUBLIC "-//W3C//DTD SVG 20010904//EN"
 "http://www.w3.org/TR/2001/REC-SVG-20010904/DTD/svg10.dtd">
<svg version="1.0" xmlns="http://www.w3.org/2000/svg"
 width="512.000000pt" height="512.000000pt" viewBox="0 0 512.000000 512.000000"
 preserveAspectRatio="xMidYMid meet">

<g transform="translate(0.000000,512.000000) scale(0.100000,-0.100000)"
fill="#000000" stroke="none">
<path d="M2720 3749 c-66 -27 -93 -88 -67 -152 18 -42 60 -67 114 -67 75 -1
168 -51 218 -116 l26 -33 -34 -53 c-19 -29 -69 -113 -112 -185 l-77 -133 -473
0 -474 0 -19 53 c-11 28 -23 60 -27 70 -6 14 -2 17 20 17 79 0 129 87 94 163
-24 52 -48 57 -291 57 -250 0 -262 -3 -292 -64 -16 -32 -17 -44 -7 -76 19 -63
50 -80 147 -80 77 0 83 -2 89 -22 4 -13 13 -36 21 -53 12 -27 64 -165 64 -169
0 -1 -35 4 -77 12 -105 18 -266 10 -358 -18 -140 -44 -243 -106 -345 -211 -80
-81 -139 -179 -181 -300 -30 -88 -32 -103 -33 -234 -1 -111 3 -154 18 -205 97
-328 341 -535 681 -581 100 -13 239 5 348 44 240 87 431 303 492 555 l17 72
124 0 c113 0 125 2 148 23 13 12 129 198 256 412 128 215 246 413 262 440 17
28 42 70 56 95 44 80 42 80 84 -32 21 -57 49 -125 62 -153 l24 -50 -64 -63
c-244 -244 -310 -609 -162 -907 120 -241 340 -396 619 -435 315 -44 657 148
794 445 56 123 70 188 69 340 -1 131 -3 146 -33 234 -92 264 -281 441 -561
522 -28 8 -99 13 -185 13 -131 0 -185 -8 -268 -40 -24 -9 -147 326 -173 471
-17 97 -95 217 -190 291 -72 56 -120 78 -218 99 -86 17 -92 17 -126 4z m-70
-964 c0 -2 -47 -83 -105 -179 -58 -97 -105 -178 -105 -180 0 -3 -20 -37 -45
-75 -25 -38 -45 -74 -45 -80 0 -7 -28 -11 -74 -11 l-73 0 -13 48 c-14 58 -37
126 -58 172 -22 48 -103 168 -139 205 -34 34 -53 66 -53 89 0 14 39 16 355 16
195 0 355 -2 355 -5z m-1070 -102 c166 -46 312 -185 369 -351 11 -34 21 -64
21 -67 0 -2 -134 -5 -297 -7 -280 -3 -299 -4 -320 -23 -52 -45 -50 -132 4
-175 24 -19 40 -20 319 -20 162 0 294 -2 294 -5 0 -23 -47 -138 -74 -180 -72
-112 -152 -178 -281 -231 -63 -25 -82 -28 -185 -29 -177 0 -284 44 -405 169
-85 87 -127 169 -151 293 -16 83 -16 96 -1 176 22 121 71 219 149 299 152 155
352 209 558 151z m2286 -4 c199 -65 342 -231 381 -444 14 -78 14 -92 -1 -176
-23 -126 -65 -208 -151 -296 -73 -74 -142 -118 -235 -149 -68 -23 -253 -26
-315 -5 -197 66 -335 208 -390 400 -24 85 -20 214 9 303 24 73 55 133 87 173
9 11 28 33 41 49 l25 29 39 -69 c21 -38 41 -73 43 -79 22 -59 215 -351 240
-365 33 -17 96 -12 124 10 30 24 51 80 42 112 -4 13 -33 64 -65 113 -72 112
-220 370 -220 383 0 9 59 28 115 36 55 8 169 -5 231 -25z"/>
</g>
</svg>
