<?xml version="1.0" standalone="no"?>
<!DOCTYPE svg PUBLIC "-//W3C//DTD SVG 20010904//EN"
 "http://www.w3.org/TR/2001/REC-SVG-20010904/DTD/svg10.dtd">
<svg version="1.0" xmlns="http://www.w3.org/2000/svg"
 width="512.000000pt" height="512.000000pt" viewBox="0 0 512.000000 512.000000"
 preserveAspectRatio="xMidYMid meet">

<g transform="translate(0.000000,512.000000) scale(0.100000,-0.100000)"
fill="#000000" stroke="none">
<path d="M1671 4433 c-20 -17 -21 -28 -24 -253 l-2 -235 -499 -3 c-447 -2
-502 -4 -518 -19 -17 -15 -18 -82 -18 -1613 l0 -1597 23 -21 23 -22 960 0 961
0 21 23 22 23 0 1439 c0 791 3 1436 6 1433 3 -4 18 -55 34 -115 15 -59 38
-144 50 -188 12 -44 34 -129 50 -190 16 -60 50 -186 75 -280 26 -93 52 -192
60 -220 52 -195 159 -596 180 -670 13 -49 38 -142 55 -205 16 -63 59 -221 94
-350 35 -129 82 -307 106 -395 91 -343 73 -321 228 -280 159 41 410 106 655
169 259 67 264 69 278 98 11 25 10 28 -177 718 -91 338 -105 390 -134 500 -16
58 -38 141 -50 185 -12 44 -28 105 -36 135 -9 30 -31 114 -50 185 -60 227 -81
304 -149 555 -36 135 -79 295 -96 355 -65 248 -85 313 -98 328 -19 23 -60 21
-176 -9 -55 -14 -188 -48 -295 -76 -260 -67 -314 -81 -454 -117 -65 -16 -127
-37 -137 -47 -19 -17 -19 -10 -19 358 l0 375 -23 21 c-23 22 -25 22 -464 22
-405 0 -442 -1 -462 -17z m819 -238 l0 -125 -355 0 -355 0 0 125 0 125 355 0
355 0 0 -125z m0 -345 l0 -90 -355 0 -355 0 0 90 0 90 355 0 355 0 0 -90z
m-840 -125 l0 -95 -455 0 -455 0 0 95 0 95 455 0 455 0 0 -95z m1974 23 c36
-127 56 -202 53 -205 -2 -1 -91 -25 -198 -52 -106 -28 -282 -73 -389 -101
-278 -73 -256 -71 -270 -19 -6 24 -20 74 -31 110 -25 86 -24 105 4 113 12 3
119 31 237 62 433 111 525 136 529 140 2 2 15 4 27 4 20 0 26 -9 38 -52z
m-1134 -1218 l0 -1100 -355 0 -355 0 0 1100 0 1100 355 0 355 0 0 -1100z
m-842 33 l2 -943 -455 0 -455 0 0 945 0 945 453 -2 452 -3 3 -942z m2078 807
c8 -25 12 -50 10 -57 -3 -6 -24 -15 -48 -21 -24 -5 -133 -33 -243 -62 -414
-107 -539 -138 -546 -134 -10 6 -30 94 -24 104 3 5 36 16 73 24 37 9 119 30
182 46 63 17 211 56 329 86 118 30 217 57 220 60 14 14 35 -6 47 -46z m60
-217 c12 -53 41 -159 173 -653 55 -201 103 -383 109 -405 6 -22 17 -65 25 -95
41 -147 58 -213 55 -215 -2 -2 -50 -15 -108 -29 -58 -15 -190 -49 -295 -76
-315 -83 -436 -113 -439 -109 -2 2 -34 117 -71 254 -87 325 -91 340 -126 475
-16 63 -36 138 -45 165 -8 28 -39 145 -70 260 -30 116 -57 217 -60 226 -3 11
3 18 18 22 13 2 122 31 243 62 466 122 551 143 567 144 11 1 20 -9 24 -26z
m429 -1605 c17 -61 30 -116 30 -122 0 -11 -28 -19 -420 -120 -137 -36 -287
-75 -333 -87 -45 -12 -84 -20 -86 -18 -11 10 -64 235 -58 241 4 4 34 14 67 22
101 25 623 161 695 181 76 22 72 25 105 -97z m-2567 -150 l-3 -93 -452 -3
-453 -2 0 95 0 95 455 0 456 0 -3 -92z m842 -158 l0 -60 -355 0 -355 0 0 60 0
60 355 0 355 0 0 -60z m1828 -72 c18 -68 32 -126 32 -129 0 -4 -10 -10 -22
-13 -54 -15 -394 -104 -693 -180 -55 -14 -107 -26 -115 -26 -12 0 -24 33 -49
126 -18 69 -32 127 -30 128 2 2 85 25 184 50 99 25 276 71 394 101 118 31 217
58 220 60 2 3 14 5 26 5 18 0 25 -14 53 -122z m-2670 -180 l2 -188 -455 0
-455 0 0 190 0 190 453 -2 452 -3 3 -187z m842 -63 l0 -125 -355 0 -355 0 0
125 0 125 355 0 355 0 0 -125z"/>
<path d="M920 3313 c-50 -19 -50 -18 -50 -307 0 -230 2 -275 16 -294 15 -22
17 -22 304 -22 318 0 313 -1 325 63 3 18 5 143 3 279 -3 222 -5 249 -21 265
-16 16 -44 18 -290 20 -150 1 -279 -1 -287 -4z m465 -313 l0 -185 -192 -3
-193 -2 0 190 0 190 193 -2 192 -3 0 -185z"/>
</g>
</svg>
