<?xml version="1.0" standalone="no"?>
<!DOCTYPE svg PUBLIC "-//W3C//DTD SVG 20010904//EN"
 "http://www.w3.org/TR/2001/REC-SVG-20010904/DTD/svg10.dtd">
<svg version="1.0" xmlns="http://www.w3.org/2000/svg"
 width="512.000000pt" height="512.000000pt" viewBox="0 0 512.000000 512.000000"
 preserveAspectRatio="xMidYMid meet">

<g transform="translate(0.000000,512.000000) scale(0.100000,-0.100000)"
fill="#000000" stroke="none">
<path d="M1803 3621 c-94 -27 -171 -70 -232 -131 -54 -53 -91 -96 -91 -104 0
-3 -27 -50 -60 -106 -33 -56 -60 -103 -60 -105 0 -2 -19 -36 -43 -77 -24 -40
-59 -100 -77 -133 -94 -170 -100 -174 -289 -219 -132 -32 -180 -56 -234 -116
-73 -81 -79 -113 -75 -426 3 -257 4 -271 26 -311 35 -66 75 -106 139 -139 55
-28 65 -29 208 -32 l151 -3 13 -31 c19 -43 108 -129 161 -155 137 -69 263 -69
400 0 53 26 142 112 161 156 l14 31 641 0 642 0 32 -50 c96 -149 290 -223 458
-174 103 30 189 92 242 173 l31 50 147 3 c140 3 150 4 205 32 64 33 104 73
139 139 22 40 23 53 22 242 0 180 -2 205 -22 254 -35 87 -83 159 -147 220 -98
91 -195 129 -415 161 -128 18 -174 52 -236 169 -10 20 -45 80 -76 134 -32 54
-58 100 -58 102 0 2 -27 49 -60 105 -33 56 -60 103 -60 106 0 8 -37 51 -91
104 -32 32 -84 69 -120 87 -128 63 -129 63 -755 62 -512 0 -575 -2 -631 -18z
m1307 -137 c116 -56 170 -119 301 -359 18 -33 50 -88 71 -123 21 -34 38 -64
38 -67 0 -2 22 -42 49 -87 54 -92 93 -131 155 -158 41 -18 56 -21 259 -60 60
-11 128 -31 150 -43 l42 -22 -70 -3 c-92 -4 -109 -18 -103 -88 5 -63 50 -155
94 -193 53 -47 123 -75 197 -79 l67 -4 0 -104 c0 -143 -22 -194 -102 -235 -30
-15 -59 -19 -146 -19 l-109 0 -6 83 c-3 45 -13 102 -23 127 -40 100 -121 188
-222 237 -52 26 -66 28 -172 28 -111 0 -117 -1 -183 -34 -147 -74 -236 -218
-237 -383 l0 -58 -600 0 -600 0 0 59 c0 68 -26 161 -63 224 -35 58 -114 129
-184 164 -53 26 -67 28 -173 28 -106 0 -119 -2 -173 -28 -151 -75 -247 -225
-247 -389 l0 -58 -110 0 c-89 0 -118 4 -148 19 -80 41 -102 92 -102 236 l0
105 74 0 c55 0 77 4 87 16 13 16 78 254 79 290 0 38 -30 53 -110 56 l-75 3 27
18 c15 10 87 33 161 52 151 37 163 42 219 93 31 28 138 188 138 207 0 3 17 33
38 67 21 35 53 89 70 120 88 161 146 250 190 289 46 41 142 92 192 102 14 2
288 4 610 3 l585 -1 65 -31z m-2250 -1052 c0 -5 -7 -32 -15 -60 -15 -50 -17
-52 -50 -52 l-35 0 0 60 0 60 50 0 c28 0 50 -4 50 -8z m3448 -14 c6 -13 18
-40 26 -60 l15 -38 -40 0 c-70 0 -137 37 -165 92 l-15 28 84 0 c77 0 85 -2 95
-22z m-2641 -246 c65 -34 106 -75 139 -139 24 -49 29 -70 29 -133 0 -88 -25
-150 -85 -210 -60 -60 -122 -85 -210 -85 -121 0 -211 55 -265 161 -52 102 -44
212 23 309 30 43 106 99 156 115 51 16 166 6 213 -18z m2039 0 c63 -32 100
-67 136 -130 30 -52 33 -64 33 -142 0 -76 -3 -90 -29 -135 -64 -109 -148 -160
-266 -160 -63 0 -84 5 -133 29 -98 50 -156 135 -164 241 -6 75 8 129 50 192
33 50 107 106 161 123 51 15 166 6 212 -18z"/>
<path d="M1850 3454 c-56 -19 -101 -44 -138 -78 -50 -46 -352 -545 -352 -581
0 -12 8 -29 18 -38 17 -15 66 -17 494 -17 447 0 476 1 491 18 15 17 17 55 17
344 0 302 -1 326 -18 341 -16 15 -49 17 -258 16 -131 0 -246 -3 -254 -5z m410
-354 l0 -240 -366 0 -366 0 19 33 c124 207 226 375 236 388 7 9 30 26 52 38
37 19 55 21 232 21 l193 0 0 -240z"/>
<path d="M2517 3442 c-15 -17 -17 -51 -17 -344 0 -302 1 -326 18 -341 17 -15
66 -17 494 -17 447 0 476 1 491 18 10 10 17 28 17 40 0 21 -137 258 -166 287
-34 33 -94 5 -94 -44 0 -25 20 -68 61 -128 16 -23 29 -44 29 -47 0 -3 -164 -6
-365 -6 l-365 0 0 241 0 240 203 -3 c235 -3 237 -4 308 -109 22 -33 47 -63 55
-66 26 -10 60 6 73 33 10 23 8 34 -15 80 -31 60 -99 129 -159 159 -36 18 -64
20 -295 23 -240 3 -257 2 -273 -16z"/>
<path d="M1377 2662 c-22 -24 -21 -65 1 -85 28 -26 182 -24 205 1 22 24 21 65
-1 85 -28 26 -182 24 -205 -1z"/>
<path d="M2517 2662 c-22 -24 -21 -65 1 -85 28 -26 182 -24 205 1 22 24 21 65
-1 85 -28 26 -182 24 -205 -1z"/>
<path d="M1465 2061 c-48 -22 -69 -44 -90 -94 -21 -51 -19 -95 8 -147 66 -132
249 -131 314 0 27 56 29 109 4 158 -46 91 -144 125 -236 83z m117 -118 c38
-34 11 -103 -40 -103 -54 0 -81 62 -45 102 20 22 61 23 85 1z"/>
<path d="M3521 2073 c-13 -3 -43 -24 -66 -48 -34 -34 -45 -53 -51 -90 -12 -86
26 -162 100 -196 50 -23 95 -24 143 -4 51 22 72 43 94 93 24 55 24 103 0 150
-41 81 -118 114 -220 95z m101 -130 c22 -20 23 -61 1 -85 -34 -38 -103 -11
-103 40 0 54 62 81 102 45z"/>
</g>
</svg>
