<?xml version="1.0" standalone="no"?>
<!DOCTYPE svg PUBLIC "-//W3C//DTD SVG 20010904//EN"
 "http://www.w3.org/TR/2001/REC-SVG-20010904/DTD/svg10.dtd">
<svg version="1.0" xmlns="http://www.w3.org/2000/svg"
 width="512.000000pt" height="512.000000pt" viewBox="0 0 512.000000 512.000000"
 preserveAspectRatio="xMidYMid meet">

<g transform="translate(0.000000,512.000000) scale(0.100000,-0.100000)"
fill="#000000" stroke="none">
<path d="M2520 4053 c-23 -16 -466 -394 -565 -482 -140 -124 -228 -204 -286
-258 l-66 -63 -252 0 -252 0 -24 -26 -25 -27 0 -1051 c1 -922 2 -1053 16
-1071 15 -20 28 -20 1489 -23 1466 -2 1475 -2 1495 18 20 20 20 32 20 1075 l0
1056 -25 24 -24 25 -253 0 -253 0 -120 106 c-66 59 -176 156 -245 218 -69 61
-157 138 -195 171 -37 33 -136 120 -218 193 -93 82 -157 132 -171 132 -12 0
-33 -8 -46 -17z m248 -325 c114 -100 230 -202 257 -227 28 -25 84 -75 125
-111 41 -36 93 -82 115 -102 l40 -37 -747 -1 c-412 0 -748 2 -748 4 0 5 322
288 529 466 80 69 162 139 181 157 19 18 36 33 38 33 2 0 96 -82 210 -182z
m982 -688 l-75 -69 -1113 -1 -1113 0 -49 46 c-27 26 -58 53 -70 61 -11 8 -20
18 -20 24 0 5 476 9 1258 9 l1257 0 -75 -70z m-2420 -872 l0 -714 -22 -25
c-12 -13 -43 -47 -70 -76 l-48 -52 0 862 0 862 70 -71 70 -72 0 -714z m2600
-15 c0 -816 -1 -855 -17 -836 -10 11 -39 44 -65 72 l-48 53 0 729 0 730 58 54
c31 30 60 54 65 55 4 0 7 -385 7 -857z m-270 372 l0 -305 -37 19 c-242 123
-484 147 -738 73 -122 -36 -164 -53 -330 -132 -158 -76 -274 -122 -386 -152
-69 -18 -109 -22 -224 -22 -135 0 -144 2 -250 38 -61 20 -138 52 -170 70 l-60
33 -3 341 -2 342 1100 0 1100 0 0 -305z m-270 -334 c36 -13 111 -45 168 -72
l102 -49 0 -305 0 -305 -1100 0 -1100 0 0 264 0 264 83 -35 c136 -60 238 -84
372 -90 203 -9 363 35 710 197 312 145 370 161 565 156 107 -3 148 -8 200 -25z
m394 -936 l57 -65 -1281 0 -1282 0 57 65 57 65 1167 0 1167 0 58 -65z"/>
</g>
</svg>
