<?xml version="1.0" standalone="no"?>
<!DOCTYPE svg PUBLIC "-//W3C//DTD SVG 20010904//EN"
 "http://www.w3.org/TR/2001/REC-SVG-20010904/DTD/svg10.dtd">
<svg version="1.0" xmlns="http://www.w3.org/2000/svg"
 width="512.000000pt" height="512.000000pt" viewBox="0 0 512.000000 512.000000"
 preserveAspectRatio="xMidYMid meet">

<g transform="translate(0.000000,512.000000) scale(0.100000,-0.100000)"
fill="#000000" stroke="none">
<path d="M1345 4561 c-151 -68 -213 -234 -143 -381 24 -48 74 -101 117 -123
24 -13 154 -85 246 -137 22 -13 85 -47 140 -77 55 -30 105 -58 110 -63 40 -30
132 -70 161 -70 27 0 38 6 52 29 9 16 29 50 45 76 l27 46 28 -18 c48 -32 67
-43 87 -52 40 -17 46 -33 29 -87 -37 -124 -94 -380 -94 -425 0 -57 25 -111 75
-159 19 -19 35 -38 35 -42 0 -5 -32 -63 -71 -131 -40 -67 -124 -212 -188 -322
l-116 -200 0 -72 c0 -57 4 -77 21 -100 33 -45 81 -71 142 -79 31 -4 410 -4
842 0 l784 7 33 24 c59 46 78 83 78 155 0 62 -3 70 -69 180 -38 63 -78 131
-88 150 -21 36 -93 160 -115 195 -7 11 -17 29 -22 40 -6 11 -24 43 -41 70 -16
28 -33 57 -37 65 -6 12 -58 102 -93 160 -5 8 -46 80 -92 160 -46 79 -95 165
-110 190 -15 25 -31 52 -35 60 -4 7 -24 42 -45 77 -21 34 -38 66 -38 70 0 4
-20 26 -44 49 -48 45 -99 60 -164 48 -68 -12 -105 -51 -176 -184 -16 -30 -42
-74 -57 -98 -16 -24 -29 -45 -29 -47 0 -2 -26 -48 -57 -102 -31 -54 -74 -129
-96 -168 -22 -38 -41 -72 -43 -74 -7 -8 -36 24 -48 53 -13 31 -12 34 19 151 7
28 30 121 50 208 35 146 37 160 23 194 -15 40 -58 77 -156 131 l-59 34 43 76
c47 81 50 93 34 122 -8 14 -158 110 -173 110 -2 0 -60 32 -128 71 -68 39 -149
84 -179 101 -30 16 -71 39 -90 50 -110 65 -146 78 -216 78 -45 0 -83 -7 -109
-19z m213 -146 c37 -20 74 -40 82 -45 27 -18 302 -170 306 -170 4 0 135 -79
143 -86 4 -4 -139 -254 -146 -254 -3 0 -46 23 -95 51 -50 28 -113 63 -142 79
-86 47 -299 167 -337 190 -124 76 -64 270 84 270 24 0 62 -13 105 -35z m1354
-750 c26 -44 52 -89 58 -100 6 -11 24 -42 40 -70 17 -27 34 -57 37 -65 4 -8 9
-17 13 -20 4 -3 22 -34 41 -70 18 -36 36 -67 40 -70 3 -3 23 -36 44 -75 21
-38 43 -79 49 -90 7 -11 24 -39 39 -62 15 -24 27 -45 27 -49 0 -3 8 -18 19
-32 43 -63 341 -590 341 -605 0 -10 -9 -26 -20 -37 -20 -20 -33 -20 -807 -20
-850 1 -823 -1 -823 53 0 14 25 68 55 120 30 51 55 99 55 105 0 5 4 12 8 14 6
2 52 79 195 328 11 19 27 48 35 63 15 30 34 30 82 -3 14 -10 79 -48 145 -85
66 -38 191 -109 278 -158 139 -79 162 -89 185 -81 15 5 31 21 36 37 15 42 -8
73 -86 115 -36 21 -104 59 -150 86 -45 27 -101 59 -123 71 -22 12 -64 36 -93
54 -29 17 -55 31 -57 31 -16 0 -125 76 -125 87 0 8 8 27 19 41 10 15 31 50 45
77 15 28 36 64 47 80 10 17 23 39 29 50 5 11 23 43 40 70 16 28 33 57 37 65 3
8 16 31 28 50 12 19 37 62 55 95 38 70 56 87 90 83 19 -2 36 -21 72 -83z"/>
<path d="M1841 1984 c-20 -25 -21 -40 -21 -225 l0 -199 -224 0 c-198 0 -226
-2 -245 -17 -20 -17 -21 -28 -23 -223 l-3 -205 -239 -3 c-206 -2 -242 -5 -258
-19 -16 -15 -18 -38 -18 -268 0 -231 1 -253 18 -268 17 -16 152 -17 1734 -17
1649 0 1716 1 1731 18 16 17 17 81 17 719 0 665 -1 701 -18 716 -17 16 -116
17 -1225 17 l-1206 0 -20 -26z m959 -264 l0 -160 -420 0 -420 0 0 160 0 160
420 0 420 0 0 -160z m1010 0 l0 -160 -435 0 -435 0 0 160 0 160 435 0 435 0 0
-160z m370 0 l0 -160 -120 0 -120 0 0 160 0 160 120 0 120 0 0 -160z m-1872
-447 l-3 -158 -422 -3 -423 -2 0 160 0 160 425 0 426 0 -3 -157z m1000 0 l-3
-158 -432 -3 -433 -2 0 160 0 160 435 0 436 0 -3 -157z m870 0 l-3 -158 -365
0 -365 0 -3 158 -3 157 371 0 371 0 -3 -157z m-2390 -445 l3 -158 -426 0 -425
0 0 160 0 160 423 -2 422 -3 3 -157z m1002 2 l0 -160 -418 -2 c-230 -2 -426
-2 -435 0 -15 3 -17 22 -17 163 l0 159 435 0 435 0 0 -160z m1008 -2 l3 -158
-441 0 -440 0 0 153 c0 85 3 157 7 160 3 4 200 6 437 5 l431 -3 3 -157z m385
-1 l2 -157 -127 0 -128 0 0 153 c0 85 3 157 7 161 4 3 60 5 126 4 l118 -3 2
-158z"/>
</g>
</svg>
