<?xml version="1.0" standalone="no"?>
<!DOCTYPE svg PUBLIC "-//W3C//DTD SVG 20010904//EN"
 "http://www.w3.org/TR/2001/REC-SVG-20010904/DTD/svg10.dtd">
<svg version="1.0" xmlns="http://www.w3.org/2000/svg"
 width="512.000000pt" height="512.000000pt" viewBox="0 0 512.000000 512.000000"
 preserveAspectRatio="xMidYMid meet">

<g transform="translate(0.000000,512.000000) scale(0.100000,-0.100000)"
fill="#000000" stroke="none">
<path d="M1083 4069 c-64 -32 -73 -60 -73 -236 l0 -150 -82 -53 c-165 -107
-292 -261 -360 -436 -55 -143 -112 -483 -150 -899 -19 -202 -16 -636 4 -750
43 -242 116 -350 298 -438 179 -87 361 -97 499 -28 43 21 248 169 371 268 132
106 400 310 441 336 88 55 182 96 286 124 85 23 118 26 243 26 126 0 158 -3
244 -27 106 -28 199 -68 285 -123 42 -27 346 -259 445 -339 102 -84 323 -243
367 -265 138 -69 320 -59 499 28 181 88 255 197 298 438 20 115 23 551 4 745
-49 512 -104 815 -174 968 -67 145 -183 277 -330 376 l-88 58 0 145 c0 172 -9
201 -74 233 -39 19 -61 20 -316 20 -252 0 -277 -2 -314 -20 -65 -31 -70 -46
-76 -214 l-5 -149 -90 -34 c-196 -72 -443 -163 -505 -184 -79 -26 -232 -37
-311 -20 -48 10 -226 72 -304 106 -16 7 -57 22 -90 34 -33 11 -98 36 -145 55
l-85 34 -5 154 c-6 172 -11 187 -76 218 -37 18 -62 20 -315 20 -257 0 -277 -1
-316 -21z m437 -274 l0 -25 -120 0 -120 0 0 25 0 25 120 0 120 0 0 -25z m2320
-1 c0 -20 -4 -25 -16 -20 -9 3 -63 6 -120 6 -97 0 -104 1 -104 20 0 19 7 20
120 20 l120 0 0 -26z m84 -323 c200 -80 326 -215 390 -416 37 -118 86 -438
118 -775 19 -207 16 -604 -6 -714 -28 -141 -47 -167 -166 -225 -66 -31 -84
-36 -150 -36 -68 0 -79 3 -122 33 -25 17 -52 38 -60 44 -7 7 -67 54 -133 103
-66 50 -205 158 -310 240 -220 172 -265 202 -389 260 -187 88 -320 117 -536
118 -224 0 -349 -29 -555 -128 -116 -56 -167 -91 -466 -325 -229 -178 -373
-288 -419 -320 -29 -21 -46 -25 -110 -25 -66 0 -84 5 -150 36 -119 58 -141 88
-168 227 -20 108 -23 534 -4 722 32 323 78 633 113 755 60 216 248 389 485
446 155 37 246 20 564 -104 97 -38 192 -73 430 -162 69 -26 189 -38 308 -32
122 6 190 22 362 87 475 179 602 222 680 229 112 9 206 -3 294 -38z"/>
<path d="M3665 3086 c-89 -39 -108 -158 -34 -220 60 -51 132 -46 186 11 28 29
33 42 33 85 0 103 -93 165 -185 124z"/>
<path d="M1335 3051 c-57 -34 -65 -57 -65 -195 l0 -124 -135 -4 -135 -3 -36
-36 c-66 -66 -54 -163 25 -207 34 -19 54 -22 160 -22 l121 0 0 -128 0 -129 33
-38 c29 -34 39 -39 88 -43 52 -4 59 -2 92 28 46 40 57 79 57 208 l0 102 118 0
c98 0 122 3 149 20 90 55 93 168 4 227 -30 21 -46 23 -151 23 l-118 0 -3 123
c-3 97 -8 129 -22 150 -41 63 -123 84 -182 48z"/>
<path d="M2055 3028 c-47 -27 -65 -61 -65 -120 0 -52 3 -61 34 -91 40 -40 67
-47 195 -47 107 0 150 14 185 62 42 58 19 161 -45 194 -35 18 -273 20 -304 2z"/>
<path d="M2754 3021 c-35 -21 -64 -75 -64 -119 0 -39 38 -93 80 -114 26 -14
60 -18 131 -18 128 0 155 7 195 47 31 30 34 39 34 91 0 45 -5 63 -23 83 -38
44 -58 49 -194 49 -108 0 -133 -3 -159 -19z"/>
<path d="M3373 2800 c-45 -27 -65 -62 -65 -115 0 -53 20 -88 65 -115 89 -55
202 15 200 122 -1 68 -63 128 -133 128 -19 0 -49 -9 -67 -20z"/>
<path d="M3932 2800 c-92 -57 -92 -174 1 -230 86 -53 197 12 197 115 0 52 -17
84 -59 112 -42 28 -95 30 -139 3z"/>
<path d="M3665 2531 c-55 -25 -90 -93 -78 -153 9 -43 62 -95 106 -103 86 -16
157 46 157 137 0 41 -5 54 -33 84 -28 31 -41 37 -83 40 -27 2 -58 0 -69 -5z"/>
</g>
</svg>
