<?xml version="1.0" standalone="no"?>
<!DOCTYPE svg PUBLIC "-//W3C//DTD SVG 20010904//EN"
 "http://www.w3.org/TR/2001/REC-SVG-20010904/DTD/svg10.dtd">
<svg version="1.0" xmlns="http://www.w3.org/2000/svg"
 width="512.000000pt" height="512.000000pt" viewBox="0 0 512.000000 512.000000"
 preserveAspectRatio="xMidYMid meet">

<g transform="translate(0.000000,512.000000) scale(0.100000,-0.100000)"
fill="#000000" stroke="none">
<path d="M2435 4724 c-295 -32 -517 -92 -755 -206 -239 -114 -407 -233 -601
-427 -340 -340 -541 -736 -616 -1216 -24 -152 -24 -478 0 -630 58 -369 188
-681 411 -985 89 -122 314 -347 436 -436 304 -223 616 -353 985 -411 152 -24
478 -24 630 0 369 58 681 188 985 411 122 89 347 314 436 436 223 304 353 616
411 985 24 152 24 478 0 630 -36 228 -94 416 -189 615 -114 239 -233 407 -427
601 -337 337 -738 541 -1206 614 -97 15 -420 27 -500 19z m65 -759 l0 -535
-429 0 -429 0 29 89 c73 227 195 474 299 605 112 141 190 215 303 286 60 38
180 88 215 89 9 1 12 -112 12 -534z m309 511 c152 -51 290 -161 441 -352 104
-131 226 -378 299 -605 l29 -89 -429 0 -429 0 0 535 c0 312 4 535 9 535 5 0
41 -11 80 -24z m-931 -123 c-193 -224 -346 -524 -442 -865 l-17 -58 -274 0
c-151 0 -275 3 -275 6 0 12 74 140 120 209 191 283 442 502 759 662 129 66
154 75 129 46z m1593 -46 c317 -160 568 -379 759 -662 46 -69 120 -197 120
-209 0 -3 -124 -6 -275 -6 l-274 0 -17 58 c-38 135 -100 302 -162 432 -71 149
-150 273 -267 418 -15 17 -22 32 -17 32 5 0 65 -28 133 -63z m-2101 -1101 c0
-2 -6 -41 -14 -87 -35 -208 -41 -281 -41 -559 0 -278 6 -351 41 -559 8 -46 14
-85 14 -87 0 -2 -134 -4 -299 -4 l-298 0 -26 83 c-116 361 -116 773 0 1135
l26 82 298 0 c165 0 299 -2 299 -4z m1130 -646 l0 -650 -455 0 -455 0 -4 23
c-78 387 -78 867 0 1255 l4 22 455 0 455 0 0 -650z m1134 628 c3 -13 10 -52
16 -88 59 -357 53 -833 -16 -1167 l-4 -23 -455 0 -455 0 0 650 0 650 455 0
455 0 4 -22z m839 -60 c116 -362 116 -774 0 -1135 l-26 -83 -298 0 c-165 0
-299 2 -299 4 0 2 6 41 14 87 35 208 41 281 41 559 0 278 -6 351 -41 559 -8
46 -14 85 -14 87 0 2 134 4 299 4 l298 0 26 -82z m-3037 -1495 c88 -315 239
-621 403 -818 27 -33 48 -62 45 -64 -8 -8 -252 120 -347 183 -210 139 -396
321 -534 523 -56 82 -133 213 -133 227 0 3 124 6 275 6 l274 0 17 -57z m1064
-478 c0 -312 -4 -535 -9 -535 -30 0 -161 54 -218 90 -113 71 -191 145 -303
286 -104 131 -226 378 -299 605 l-29 89 429 0 429 0 0 -535z m1049 446 c-73
-227 -195 -474 -299 -605 -112 -141 -190 -215 -303 -286 -57 -36 -188 -90
-218 -90 -5 0 -9 223 -9 535 l0 535 429 0 429 0 -29 -89z m801 83 c0 -14 -77
-145 -133 -227 -138 -202 -324 -384 -534 -523 -94 -62 -339 -191 -347 -183 -2
2 25 40 61 84 156 195 303 496 387 798 l17 57 274 0 c151 0 275 -3 275 -6z"/>
</g>
</svg>
